<svg width="128" height="128" viewBox="0 0 128 128" fill="none" xmlns="http://www.w3.org/2000/svg">
<rect width="128" height="128" fill="#438C79"/>
<path d="M32 95.6875C32 99.7246 35.3594 103 39.5 103H94.5C98.6406 103 102 99.7246 102 95.6875V54.25H32V95.6875ZM82 65.8281C82 64.8227 82.8438 64 83.875 64H90.125C91.1562 64 92 64.8227 92 65.8281V71.9219C92 72.9273 91.1562 73.75 90.125 73.75H83.875C82.8438 73.75 82 72.9273 82 71.9219V65.8281ZM82 85.3281C82 84.3227 82.8438 83.5 83.875 83.5H90.125C91.1562 83.5 92 84.3227 92 85.3281V91.4219C92 92.4273 91.1562 93.25 90.125 93.25H83.875C82.8438 93.25 82 92.4273 82 91.4219V85.3281ZM62 65.8281C62 64.8227 62.8438 64 63.875 64H70.125C71.1562 64 72 64.8227 72 65.8281V71.9219C72 72.9273 71.1562 73.75 70.125 73.75H63.875C62.8438 73.75 62 72.9273 62 71.9219V65.8281ZM62 85.3281C62 84.3227 62.8438 83.5 63.875 83.5H70.125C71.1562 83.5 72 84.3227 72 85.3281V91.4219C72 92.4273 71.1562 93.25 70.125 93.25H63.875C62.8438 93.25 62 92.4273 62 91.4219V85.3281ZM42 65.8281C42 64.8227 42.8438 64 43.875 64H50.125C51.1562 64 52 64.8227 52 65.8281V71.9219C52 72.9273 51.1562 73.75 50.125 73.75H43.875C42.8438 73.75 42 72.9273 42 71.9219V65.8281ZM42 85.3281C42 84.3227 42.8438 83.5 43.875 83.5H50.125C51.1562 83.5 52 84.3227 52 85.3281V91.4219C52 92.4273 51.1562 93.25 50.125 93.25H43.875C42.8438 93.25 42 92.4273 42 91.4219V85.3281ZM94.5 34.75H87V27.4375C87 26.0969 85.875 25 84.5 25H79.5C78.125 25 77 26.0969 77 27.4375V34.75H57V27.4375C57 26.0969 55.875 25 54.5 25H49.5C48.125 25 47 26.0969 47 27.4375V34.75H39.5C35.3594 34.75 32 38.0254 32 42.0625V49.375H102V42.0625C102 38.0254 98.6406 34.75 94.5 34.75Z" fill="white"/>
<circle cx="43.5" cy="66.5" r="16.5" fill="white"/>
<path d="M43.5 80.2512C35.91 80.243 29.7582 74.0912 29.75 66.5012V66.2262C29.9013 58.6706 36.1231 52.6522 43.6788 52.7512C51.2371 52.853 57.2967 59.0336 57.2472 66.5906C57.1977 74.149 51.0584 80.2512 43.5 80.2512ZM37.1887 65.9375L35.25 67.8762L40.75 73.3762L51.75 62.3762L49.8113 60.4237L40.75 69.485L37.1887 65.9375Z" fill="#9CD161"/>
<circle cx="43.5" cy="66.5" r="13.5" fill="#9CD161"/>
<path d="M49.1667 59L40.6667 67.4L37.8333 64.6L35 67.4L40.6667 73L52 61.8L49.1667 59Z" fill="white"/>
</svg>
